solid Exported from Blender-2.92.0
facet normal 0.000000 0.000000 1.000000
outer loop
vertex 160.000000 160.000000 20.000000
vertex 140.000000 160.000000 20.000000
vertex 140.000000 140.000000 20.000000
endloop
endfacet
facet normal 0.000000 0.000000 1.000000
outer loop
vertex 160.000000 160.000000 20.000000
vertex 140.000000 140.000000 20.000000
vertex 160.000000 140.000000 20.000000
endloop
endfacet
facet normal 0.000000 -1.000000 0.000000
outer loop
vertex 160.000000 140.000000 0.000000
vertex 160.000000 140.000000 20.000000
vertex 140.000000 140.000000 20.000000
endloop
endfacet
facet normal 0.000000 -1.000000 0.000000
outer loop
vertex 160.000000 140.000000 0.000000
vertex 140.000000 140.000000 20.000000
vertex 140.000000 140.000000 0.000000
endloop
endfacet
facet normal -1.000000 0.000000 0.000000
outer loop
vertex 140.000000 140.000000 0.000000
vertex 140.000000 140.000000 20.000000
vertex 140.000000 160.000000 20.000000
endloop
endfacet
facet normal -1.000000 0.000000 0.000000
outer loop
vertex 140.000000 140.000000 0.000000
vertex 140.000000 160.000000 20.000000
vertex 140.000000 160.000000 0.000000
endloop
endfacet
facet normal 0.000000 0.000000 -1.000000
outer loop
vertex 140.000000 160.000000 0.000000
vertex 160.000000 160.000000 0.000000
vertex 160.000000 140.000000 0.000000
endloop
endfacet
facet normal 0.000000 0.000000 -1.000000
outer loop
vertex 140.000000 160.000000 0.000000
vertex 160.000000 140.000000 0.000000
vertex 140.000000 140.000000 0.000000
endloop
endfacet
facet normal 1.000000 0.000000 0.000000
outer loop
vertex 160.000000 160.000000 0.000000
vertex 160.000000 160.000000 20.000000
vertex 160.000000 140.000000 20.000000
endloop
endfacet
facet normal 1.000000 0.000000 0.000000
outer loop
vertex 160.000000 160.000000 0.000000
vertex 160.000000 140.000000 20.000000
vertex 160.000000 140.000000 0.000000
endloop
endfacet
facet normal 0.000000 1.000000 0.000000
outer loop
vertex 140.000000 160.000000 0.000000
vertex 140.000000 160.000000 20.000000
vertex 160.000000 160.000000 20.000000
endloop
endfacet
facet normal 0.000000 1.000000 0.000000
outer loop
vertex 140.000000 160.000000 0.000000
vertex 160.000000 160.000000 20.000000
vertex 160.000000 160.000000 0.000000
endloop
endfacet
endsolid Exported from Blender-2.92.0
